<?xml version="1.0" encoding="UTF-8" standalone="no"?>
<!-- Created with Inkscape (http://www.inkscape.org/) -->

<svg
   width="173.81036"
   height="158.07797"
   viewBox="0 0 45.987324 41.824796"
   version="1.1"
   id="svg1"
   xmlns:inkscape="http://www.inkscape.org/namespaces/inkscape"
   xmlns:sodipodi="http://sodipodi.sourceforge.net/DTD/sodipodi-0.dtd"
   xmlns="http://www.w3.org/2000/svg"
   xmlns:svg="http://www.w3.org/2000/svg">
  <sodipodi:namedview
     id="namedview1"
     pagecolor="#ffffff"
     bordercolor="#999999"
     borderopacity="1"
     inkscape:showpageshadow="2"
     inkscape:pageopacity="0"
     inkscape:pagecheckerboard="0"
     inkscape:deskcolor="#222222"
     inkscape:document-units="mm" />
  <defs
     id="defs1" />
  <g
     inkscape:label="Layer 1"
     inkscape:groupmode="layer"
     id="layer1"
     transform="translate(-3.4646691,-5.5459347)">
    <path
       style="fill:#ffffff;stroke-width:0.420407"
       d="m 8.8116041,47.300959 c -0.87084,-0.136888 -1.762385,-0.467803 -2.441234,-0.906107 -0.469708,-0.303274 -0.578745,-0.392892 -1.088421,-0.894602 -0.907584,-0.89339 -1.518423,-2.069976 -1.73627,-3.344373 -0.07286,-0.42623 -0.08101,-1.585499 -0.08101,-11.527099 0,-9.578579 0.01001,-11.110581 0.07498,-11.483201 0.391634,-2.245802 1.951812,-4.109538 4.079913,-4.873725 0.200358,-0.07195 0.584417,-0.180109 0.853465,-0.240361 0.471861,-0.10567 0.614063,-0.110276 4.0159999,-0.13007 l 3.526817,-0.02052 2.02e-4,-1.314258 c 2.27e-4,-1.467299 0.0566,-1.973319 0.301175,-2.7033251 0.746644,-2.228583 2.654359,-3.863869 4.94005,-4.234588 0.691852,-0.112213 9.726357,-0.10957 10.420785,0.0031 2.267412,0.367715 4.176737,2.009466 4.921199,4.231541 0.244576,0.7300051 0.300953,1.2360251 0.301175,2.7033241 l 2.02e-4,1.314258 3.526817,0.02052 c 3.40194,0.01979 3.544143,0.0244 4.015999,0.13007 0.269048,0.06025 0.653107,0.168444 0.853465,0.240426 2.178966,0.782837 3.786023,2.746366 4.10095,5.010608 0.03712,0.266929 0.05395,3.820552 0.05395,11.393696 2e-6,12.143911 0.01842,11.41286 -0.312815,12.405349 -0.642827,1.926033 -2.228217,3.461688 -4.151958,4.0217 -0.981752,0.285793 0.0862,0.270536 -18.579002,0.265466 -13.545815,-0.0038 -17.2800369,-0.01808 -17.5964349,-0.06781 z M 43.897051,43.070906 c 0.61971,-0.234028 1.093425,-0.735011 1.288473,-1.362645 0.09477,-0.304976 0.09915,-0.475136 0.09915,-3.853411 v -3.534342 l -0.891121,0.445821 c -4.874916,2.438908 -10.091161,3.836233 -15.57573,4.17242 -1.057164,0.0648 -3.651935,0.06559 -4.694057,0.0013 C 18.622745,38.601324 13.37148,37.194566 8.4978281,34.75398 l -0.866013,-0.433675 v 3.534359 c 0,3.378288 0.0044,3.548447 0.09915,3.853423 0.23349,0.75134 0.835454,1.29187 1.607978,1.443877 0.128602,0.02531 7.5479669,0.04128 17.2448069,0.03712 l 17.0191,-0.0073 z M 28.5166,34.77155 c 5.731979,-0.353293 11.204676,-2.003316 16.015018,-4.828536 l 0.727956,-0.427546 0.01282,-4.786698 c 0.01392,-5.205965 0.01858,-5.107994 -0.264751,-5.591437 -0.181633,-0.309937 -0.629375,-0.714225 -0.965365,-0.871685 l -0.2888,-0.135341 H 26.458244 9.1630301 l -0.288807,0.135341 c -0.335989,0.15746 -0.783727,0.561748 -0.965364,0.871685 -0.283317,0.483443 -0.27868,0.385472 -0.264752,5.591437 l 0.01282,4.786698 0.727956,0.426638 c 4.7748389,2.798411 10.3057589,4.478194 15.8895109,4.82577 0.965015,0.06007 3.294504,0.06209 4.24222,0.0038 z m -2.430151,-4.165768 c -0.388965,-0.0694 -0.837586,-0.31832 -1.128975,-0.62642 -0.779329,-0.824027 -0.779329,-2.039504 0,-2.863528 1.048551,-1.108685 2.898486,-0.746815 3.469663,0.678706 0.0869,0.216892 0.110635,0.378425 0.110635,0.753058 0,0.374634 -0.02375,0.536162 -0.110635,0.753059 -0.370004,0.923437 -1.366323,1.478967 -2.340688,1.305125 z m 6.638473,-18.013256 -0.01631,-1.295559 -0.187047,-0.378263 C 32.292858,10.456201 31.958739,10.128298 31.489829,9.9061669 l -0.337536,-0.159898 h -4.696651 -4.696659 l -0.378472,0.18705 c -0.462717,0.2286861 -0.790525,0.5626451 -1.012744,1.0317321 l -0.159898,0.337537 -0.01631,1.292748 -0.01631,1.292748 h 6.282977 6.282977 z"
       id="path1" />
  </g>
</svg>
